[Header]
FileType HTR
DataType HTRS
FileVersion 1
NumSegments 22
NumFrames 4
DataFrameRate 24
EulerRotationOrder ZYX
CalibrationUnits mm
RotationUnits Degrees
GlobalAxisofGravity Y
BoneLengthAxis Y
ScaleFactor 1.0
[SegmentNames&Hierarchy]
reference	GLOBAL
Hips	reference
Spine	Hips
Spine1	Spine
Neck	Spine1
Head	Neck
LeftShoulder	Spine1
LeftArm	LeftShoulder
LeftForeArm	LeftArm
LeftHand	LeftForeArm
RightShoulder	Spine1
RightArm	RightShoulder
RightForeArm	RightArm
RightHand	RightForeArm
LeftUpLeg	Hips
LeftLeg	LeftUpLeg
LeftFoot	LeftLeg
LeftToeBase	LeftFoot
RightUpLeg	Hips
RightLeg	RightUpLeg
RightFoot	RightLeg
RightToeBase	RightFoot
[BasePosition]
reference	0	0	0	0	0	0	1
Hips	0	0	0	0	0	0	1
Spine	0	0	0	-0	-90	0	1
Spine1	0	0	0	0	0	0	1
Neck	0	0	0	82.64767223	-82.64767223	-90	1
Head	0	0	0	-0	-90	0	1
LeftShoulder	0	0	0	0	0	0	1
LeftArm	0	0	0	0	0	0	1
LeftForeArm	0	0	0	0	0	0	1
LeftHand	0	0	0	0	0	0	1
RightShoulder	0	0	0	0	-0	180	1
RightArm	0	0	0	0	-0	180	1
RightForeArm	0	0	0	0	-0	180	1
RightHand	0	0	0	0	-0	180	1
LeftUpLeg	0	0	0	-0	90	0	1
LeftLeg	0	0	0	-0	90	0	1
LeftFoot	0	0	0	-23.42853957	23.42853957	-90	1
LeftToeBase	0	0	0	0	-0	-90	1
RightUpLeg	0	0	0	-0	90	0	1
RightLeg	0	0	0	-0	90	0	1
RightFoot	0	0	0	-23.42853957	23.42853957	-90	1
RightToeBase	0	0	0	0	-0	-90	1
[reference]
20	0	0	0	0	-0	0	1.0
21	0	0	0	0	-0	0	1.0
22	0	0	0	0	-0	0	1.0
23	0	0	0	0	-0	0	1.0
[Hips]
20	5.142290115	0.01155999955	7.90871048	0.5900558829	2.404264927	-76.55931091	1.0
21	5.142290115	0.01155999955	7.90871048	0.6820707917	1.064906597	-77.14514923	1.0
22	5.142290115	0.01155999955	7.90871048	1.325899959	0.8003030419	-77.53222656	1.0
23	5.142290115	0.01155999955	7.90871048	1.455605507	0.4757475257	-79.37657166	1.0
[Spine]
20	0	0	0.7457100153	272.7120056	87.26687622	278.7376099	1.0
21	0	0	0.7457100153	244.7310486	86.69529724	249.9974365	1.0
22	0	0	0.7457100153	243.9749756	86.53117371	249.255127	1.0
23	0	0	0.7457100153	236.7456665	87.19116211	241.818512	1.0
[Spine1]
20	0	0	2.140589952	9.04142952	-2.538375378	-1.115546227	1.0
21	0	0	2.140589952	7.707232475	-2.447024345	-1.184276819	1.0
22	0	0	2.140589952	6.847842216	-2.110103607	-1.189265251	1.0
23	0	0	2.140589952	6.224800587	-1.466587543	-0.8936254978	1.0
[Neck]
20	0	0	2.32246995	79.22900391	75.10186768	90.93460083	1.0
21	0	0	2.32246995	77.57666016	74.63562012	89.36734772	1.0
22	0	0	2.32246995	77.37582397	74.48222351	89.45890808	1.0
23	0	0	2.32246995	77.58118439	74.15614319	90.1697998	1.0
[Head]
20	0	-0.1818799973	1.409579992	-75.21141052	98.57467651	-69.8221283	1.0
21	0	-0.1818799973	1.409579992	-73.23882294	99.21665955	-68.72777557	1.0
22	0	-0.1818799973	1.409579992	-74.53314209	99.28611755	-70.44354248	1.0
23	0	-0.1818799973	1.409579992	-76.74798584	99.49796295	-73.15070343	1.0
[LeftShoulder]
20	0.3668199778	0.02662999928	1.946700096	-18.64049149	2.057662725	-15.73530102	1.0
21	0.3668199778	0.02662999928	1.946700096	-18.6219902	1.459219098	-15.88526917	1.0
22	0.3668199778	0.02662999928	1.946700096	-18.79471016	1.068752289	-15.68710613	1.0
23	0.3668199778	0.02662999928	1.946700096	-18.8745079	0.7559286952	-15.04648972	1.0
[LeftArm]
20	1.140689969	0	0	64.24127197	70.91123962	10.78610229	1.0
21	1.140689969	0	0	62.06590271	71.02523041	6.896863937	1.0
22	1.140689969	0	0	61.94677734	71.22841644	5.733636379	1.0
23	1.140689969	0	0	60.44330597	71.26106262	3.216087341	1.0
[LeftForeArm]
20	2.749800205	0	0	-3.702209949	-3.280694008	-43.1281662	1.0
21	2.749800205	0	0	-1.360314965	-3.201110363	-51.19800186	1.0
22	2.749800205	0	0	-0.1534119248	-3.136499882	-54.94343567	1.0
23	2.749800205	0	0	0.5363397598	-2.259059429	-59.65209579	1.0
[LeftHand]
20	2.295179844	0	0	-4.93397665	-0.5326656699	-14.09897423	1.0
21	2.295179844	0	0	-2.883141994	-0.09413469583	-14.53147793	1.0
22	2.295179844	0	0	-1.784139514	-0.01586391032	-14.42662239	1.0
23	2.295179844	0	0	-0.691562295	-0.4631392658	-14.38106155	1.0
[RightShoulder]
20	-0.3601199985	0.02662999928	1.946700096	-6.640480042	6.087475777	-177.8800354	1.0
21	-0.3601199985	0.02662999928	1.946700096	-5.891953945	5.989895821	-178.3121338	1.0
22	-0.3601199985	0.02662999928	1.946700096	-4.988677979	6.0523386	-178.2987976	1.0
23	-0.3601199985	0.02662999928	1.946700096	-3.791266918	6.072122574	-177.9094086	1.0
[RightArm]
20	-1.140689969	0	0	41.93283844	-74.23291016	-185.1568909	1.0
21	-1.140689969	0	0	46.24975586	-72.33229828	-194.4130707	1.0
22	-1.140689969	0	0	46.99588394	-71.59107971	-197.7956085	1.0
23	-1.140689969	0	0	48.02635193	-70.70124817	-202.2877808	1.0
[RightForeArm]
20	-2.749800205	0	0	4.307229042	-2.536343098	-170.6049652	1.0
21	-2.749800205	0	0	5.02951479	-3.868798018	-170.4969788	1.0
22	-2.749800205	0	0	5.388664246	-4.575854301	-170.2919006	1.0
23	-2.749800205	0	0	6.137681961	-5.512043953	-170.2194214	1.0
[RightHand]
20	-2.295179844	0	0	4.916219711	8.372735977	-174.5313416	1.0
21	-2.295179844	0	0	5.669010162	6.838730812	-174.6878815	1.0
22	-2.295179844	0	0	6.097229004	6.723439693	-174.5617218	1.0
23	-2.295179844	0	0	6.876793861	5.503428459	-174.4498749	1.0
[LeftUpLeg]
20	0.9094099998	0	0	-169.6513062	-81.4618988	142.9973755	1.0
21	0.9094099998	0	0	-167.5319214	-83.96385956	141.9671326	1.0
22	0.9094099998	0	0	-164.3760071	-84.70442963	140.0840607	1.0
23	0.9094099998	0	0	-164.4620514	-84.90298462	144.9143066	1.0
[LeftLeg]
20	0	0	-4.498080254	75.89666748	-52.05194092	-2.170822144	1.0
21	0	0	-4.498080254	68.88301086	-66.82215118	-12.25740051	1.0
22	0	0	-4.498080254	61.71632385	-74.36813354	-17.45271492	1.0
23	0	0	-4.498080254	50.62664795	-79.3002243	-27.05896187	1.0
[LeftFoot]
20	0	0	-3.729400158	-48.52282715	12.74106598	123.6062622	1.0
21	0	0	-3.729400158	-55.11650848	8.432662964	116.8720703	1.0
22	0	0	-3.729400158	-57.24658203	5.467151642	111.7702103	1.0
23	0	0	-3.729400158	-53.11334991	0.2943050861	108.072731	1.0
[LeftToeBase]
20	0	-1.364109993	-0.5911099911	0	9.999999975e-007	9.999999975e-007	1.0
21	0	-1.364109993	-0.5911099911	0	9.999999975e-007	9.999999975e-007	1.0
22	0	-1.364109993	-0.5911099911	0	9.999999975e-007	9.999999975e-007	1.0
23	0	-1.364109993	-0.5911099911	0	9.999999975e-007	9.999999975e-007	1.0
[RightUpLeg]
20	-0.9094099998	0	0	-19.83626747	-99.79495239	6.300479412	1.0
21	-0.9094099998	0	0	0.5049438477	-96.75782013	-7.777328491	1.0
22	-0.9094099998	0	0	6.577769279	-95.5357666	-11.39729691	1.0
23	-0.9094099998	0	0	22.68090057	-93.84664154	-23.4580555	1.0
[RightLeg]
20	0	0	-4.498080254	7.93477869	-83.32335663	26.81348419	1.0
21	0	0	-4.498080254	14.12940979	-85.74797058	10.40262127	1.0
22	0	0	-4.498080254	-13.86289215	-87.1969986	33.55915451	1.0
23	0	0	-4.498080254	-79.3026886	-86.83892059	92.86054993	1.0
[RightFoot]
20	0	0	-3.729400158	-58.41640472	-25.80267906	87.33231354	1.0
21	0	0	-3.729400158	-55.91342926	-25.70291138	86.54290009	1.0
22	0	0	-3.729400158	-53.93648529	-25.8729763	85.14897156	1.0
23	0	0	-3.729400158	-52.30285645	-24.79266739	83.6149292	1.0
[RightToeBase]
20	0	-1.364109993	-0.5911099911	-9.999999975e-007	0	0	1.0
21	0	-1.364109993	-0.5911099911	-9.999999975e-007	0	0	1.0
22	0	-1.364109993	-0.5911099911	-9.999999975e-007	0	0	1.0
23	0	-1.364109993	-0.5911099911	-9.999999975e-007	0	0	1.0
[EndOfFile]
